<?xml version="1.0" encoding="UTF-8"?>
<svg id="Layer_2" data-name="Layer 2" xmlns="http://www.w3.org/2000/svg" xmlns:xlink="http://www.w3.org/1999/xlink" viewBox="0 0 251.04 251.04">
  <defs>
    <style>
      .cls-1 {
        fill: url(#linear-gradient);
      }

      .cls-1, .cls-2, .cls-3, .cls-4 {
        stroke-width: 0px;
      }

      .cls-2 {
        fill: #6a0cf8;
      }

      .cls-3 {
        fill: #fff;
      }

      .cls-4 {
        fill: #309;
      }
    </style>
    <linearGradient id="linear-gradient" x1="43.14" y1="125.52" x2="196.26" y2="125.52" gradientUnits="userSpaceOnUse">
      <stop offset=".13" stop-color="#6a0cf8"/>
      <stop offset=".56" stop-color="#fd16b8"/>
      <stop offset=".97" stop-color="#fdba7f"/>
    </linearGradient>
  </defs>
  <g id="Layer_1-2" data-name="Layer 1">
    <g>
      <path class="cls-3" d="m213.89,13.79h0c-57.48-18.39-119.26-18.39-176.74,0h0c-11.1,3.55-19.81,12.26-23.36,23.36h0c-18.39,57.48-18.39,119.26,0,176.74h0c3.55,11.11,12.26,19.81,23.36,23.36h0c57.48,18.39,119.26,18.39,176.74,0h0c11.1-3.55,19.81-12.26,23.36-23.36h0c18.39-57.48,18.39-119.26,0-176.74h0c-3.55-11.11-12.26-19.81-23.36-23.36Z"/>
      <g>
        <path class="cls-2" d="m167.98,165.51c-10.68,0-20.73-4.16-28.28-11.72l-14.14-14.14-14.14,14.14c-7.56,7.55-17.6,11.72-28.28,11.72s-20.73-4.16-28.28-11.72c-15.6-15.6-15.6-40.97,0-56.57,15.6-15.6,40.97-15.6,56.57,0l14.14,14.14,14.14-14.14c15.6-15.59,40.97-15.6,56.57,0l-14.14,14.14c-7.8-7.8-20.49-7.8-28.28,0l-14.14,14.14,14.14,14.14c3.78,3.78,8.8,5.86,14.14,5.86s10.36-2.08,14.14-5.86l14.14,14.14c-7.56,7.55-17.6,11.72-28.28,11.72Zm-84.85-59.99c-5.12,0-10.24,1.95-14.14,5.85-7.8,7.8-7.8,20.49,0,28.28,7.8,7.8,20.49,7.8,28.28,0l14.14-14.14-14.14-14.14c-3.9-3.9-9.02-5.85-14.14-5.85Z"/>
        <path class="cls-1" d="m54.84,97.23c-7.8,7.8-11.7,18.04-11.7,28.28h19.99c0-5.12,1.95-10.24,5.85-14.14,3.9-3.9,9.02-5.85,14.14-5.85s10.24,1.95,14.14,5.85l14.14,14.14,14.14,14.14,14.14,14.14c7.56,7.55,17.6,11.72,28.28,11.72s20.73-4.16,28.28-11.72l-14.14-14.14c-3.78,3.78-8.8,5.86-14.14,5.86s-10.36-2.08-14.14-5.86l-14.14-14.14h0s-14.14-14.14-14.14-14.14l-14.14-14.14c-15.6-15.59-40.97-15.6-56.57,0Z"/>
        <rect class="cls-4" x="115.55" y="115.51" width="20" height="20" transform="translate(-51.98 125.54) rotate(-45)"/>
      </g>
    </g>
  </g>
</svg>